# xmcd CD database file
#
# Track frame offsets:
#	150
#	4426
#	15536
#	35999
#	66397
#	95358
#	108506
#	125538
#	144223
#	152553
#	168774
#	203526
#	224229
#	236861
#	256807
#	266875
#
# Disc length: 3870 seconds
#
# Revision: 3
# Processed by: cddbd v1.5PL3 Copyright (c) Steve Scherf et al.
# Submitted via: CDex 1.51
#
DISCID=e90f1c10
DTITLE=B. B. King - The Jazz Channel
DYEAR=2000
DGENRE=Blues
TTITLE0=Intro and Two I Shoot Blues
TTITLE1=Let The Good Times Roll
TTITLE2=I´ll Survive
TTITLE3=Bad Case Of Love
TTITLE4=Peace Of Mind
TTITLE5=Caldonia
TTITLE6=Blues Boys Tune
TTITLE7=Early In The Morning
TTITLE8=Intro: Just Like A Woman
TTITLE9=Just Like A Woman
TTITLE10=I´m Gonna Move To The Outskirts Of Town
TTITLE11=The Thrill Is Gone
TTITLE12=I Know
TTITLE13=Don´t Go No Further
TTITLE14=Please Accept My Love
TTITLE15=Making Love Is Good For You
EXTD=YEAR: 2000
EXTT0=
EXTT1=
EXTT2=
EXTT3=
EXTT4=
EXTT5=
EXTT6=
EXTT7=
EXTT8=
EXTT9=
EXTT10=
EXTT11=
EXTT12=
EXTT13=
EXTT14=
EXTT15=
PLAYORDER=
